# 3ds Max Wavefront OBJ Exporter v0.99 - (c)2007 guruware
# File Created: 13.12.2022 19:22:00

#
# object Cylinder001
#

v  9.0403 0.0000 -3.1094
v  6.8271 0.0000 -11.3691
v  0.7805 0.0000 -17.4157
v  -7.4793 0.0000 -19.6289
v  -15.7390 0.0000 -17.4157
v  -21.7856 0.0000 -11.3691
v  -23.9988 0.0000 -3.1094
v  -21.7856 0.0000 5.1504
v  -15.7390 0.0000 11.1970
v  -7.4793 0.0000 13.4102
v  0.7805 0.0000 11.1970
v  6.8271 0.0000 5.1504
v  9.0403 42.4490 -3.1094
v  6.8271 42.4490 -11.3691
v  0.7805 42.4490 -17.4157
v  -7.4793 42.4490 -19.6289
v  -15.7390 42.4490 -17.4157
v  -21.7856 42.4490 -11.3691
v  -23.9988 42.4490 -3.1094
v  -21.7856 42.4490 5.1504
v  -15.7390 42.4490 11.1970
v  -7.4793 42.4490 13.4102
v  0.7805 42.4490 11.1970
v  6.8271 42.4490 5.1504
# 24 vertices

vn 1.0000 0.0000 0.0000
vn 0.8660 0.0000 -0.5000
vn 0.8660 0.0000 -0.5000
vn 1.0000 0.0000 0.0000
vn 0.8660 0.0000 -0.5000
vn 0.5000 0.0000 -0.8660
vn 0.5000 0.0000 -0.8660
vn 0.8660 0.0000 -0.5000
vn 0.5000 0.0000 -0.8660
vn 0.0000 0.0000 -1.0000
vn 0.0000 0.0000 -1.0000
vn 0.5000 0.0000 -0.8660
vn 0.0000 0.0000 -1.0000
vn -0.5000 0.0000 -0.8660
vn -0.5000 0.0000 -0.8660
vn 0.0000 0.0000 -1.0000
vn -0.5000 0.0000 -0.8660
vn -0.8660 0.0000 -0.5000
vn -0.8660 0.0000 -0.5000
vn -0.5000 0.0000 -0.8660
vn -0.8660 0.0000 -0.5000
vn -1.0000 0.0000 -0.0000
vn -1.0000 0.0000 -0.0000
vn -0.8660 0.0000 -0.5000
vn -1.0000 0.0000 -0.0000
vn -0.8660 0.0000 0.5000
vn -0.8660 0.0000 0.5000
vn -1.0000 0.0000 -0.0000
vn -0.8660 0.0000 0.5000
vn -0.5000 0.0000 0.8660
vn -0.5000 0.0000 0.8660
vn -0.8660 0.0000 0.5000
vn -0.5000 0.0000 0.8660
vn -0.0000 0.0000 1.0000
vn -0.0000 0.0000 1.0000
vn -0.5000 0.0000 0.8660
vn -0.0000 0.0000 1.0000
vn 0.5000 0.0000 0.8660
vn 0.5000 0.0000 0.8660
vn -0.0000 0.0000 1.0000
vn 0.5000 0.0000 0.8660
vn 0.8660 0.0000 0.5000
vn 0.8660 0.0000 0.5000
vn 0.5000 0.0000 0.8660
vn 0.8660 0.0000 0.5000
vn 1.0000 0.0000 0.0000
vn 1.0000 0.0000 0.0000
vn 0.8660 0.0000 0.5000
# 48 vertex normals

vt 0.7500 0.0000 1.0000
vt 0.8333 0.0000 1.0000
vt 0.9167 0.0000 1.0000
vt 0.0000 0.0000 1.0000
vt 0.0833 0.0000 1.0000
vt 0.1667 0.0000 1.0000
vt 0.2500 0.0000 1.0000
vt 0.3333 0.0000 1.0000
vt 0.4167 0.0000 1.0000
vt 0.5000 0.0000 1.0000
vt 0.5833 0.0000 1.0000
vt 0.6667 0.0000 1.0000
vt 0.7500 1.0000 1.0000
vt 0.8333 1.0000 1.0000
vt 0.9167 1.0000 1.0000
vt 0.0000 1.0000 1.0000
vt 0.0833 1.0000 1.0000
vt 0.1667 1.0000 1.0000
vt 0.2500 1.0000 1.0000
vt 0.3333 1.0000 1.0000
vt 0.4167 1.0000 1.0000
vt 0.5000 1.0000 1.0000
vt 0.5833 1.0000 1.0000
vt 0.6667 1.0000 1.0000
vt -0.0833 0.0000 1.0000
vt -0.0833 1.0000 1.0000
# 26 texture coords

o Cylinder001
g Cylinder001
s 8
f 1/1/1 2/2/2 14/14/3 13/13/4 
f 2/2/5 3/3/6 15/15/7 14/14/8 
f 3/25/9 4/4/10 16/16/11 15/26/12 
f 4/4/13 5/5/14 17/17/15 16/16/16 
f 5/5/17 6/6/18 18/18/19 17/17/20 
f 6/6/21 7/7/22 19/19/23 18/18/24 
f 7/7/25 8/8/26 20/20/27 19/19/28 
f 8/8/29 9/9/30 21/21/31 20/20/32 
f 9/9/33 10/10/34 22/22/35 21/21/36 
f 10/10/37 11/11/38 23/23/39 22/22/40 
f 11/11/41 12/12/42 24/24/43 23/23/44 
f 12/12/45 1/1/46 13/13/47 24/24/48 
# 12 polygons

